<svg xmlns="http://www.w3.org/2000/svg" viewBox="0 0 64 64"><g data-name="Layer 22"><path d="M32,0A32,32,0,1,0,64,32,32.036,32.036,0,0,0,32,0Zm0,62A30,30,0,1,1,62,32,30.034,30.034,0,0,1,32,62Z"/><path d="M41.965,34.035a11.245,11.245,0,0,0-19.93,0,11.245,11.245,0,0,0,0,19.93,11.245,11.245,0,0,0,19.93,0,11.245,11.245,0,0,0,0-19.93ZM40.783,52.321a1.014,1.014,0,0,0-.461.461,9.245,9.245,0,0,1-16.644,0,1.014,1.014,0,0,0-.461-.461,9.244,9.244,0,0,1,0-16.642,1.014,1.014,0,0,0,.461-.461,9.245,9.245,0,0,1,16.644,0,1.014,1.014,0,0,0,.461.461,9.244,9.244,0,0,1,0,16.642Z"/><path d="M32 37.474A6.526 6.526 0 1 0 38.526 44 6.533 6.533 0 0 0 32 37.474zm0 11.052A4.526 4.526 0 1 1 36.526 44 4.531 4.531 0 0 1 32 48.526zM58.707 24.293l-16-16a1 1 0 0 0-1.414 0L39 10.586 32.707 4.293a1 1 0 0 0-1.414 0L25 10.586 22.707 8.293a1 1 0 0 0-1.414 0l-16 16A1 1 0 0 0 6 26H58a1 1 0 0 0 .707-1.707zM11.586 24H8.414L22 10.414 23.586 12zm2.828 0L25.707 12.707 32 6.414l6.293 6.293L49.586 24zm38 0l-12-12L42 10.414 55.586 24z"/></g></svg>