<svg xmlns="http://www.w3.org/2000/svg" enable-background="new 0 0 44 44" viewBox="0 0 44 44"><path d="M44,28.5c0-1.3-1-2.3-2.2-2.5c0.1-0.3,0.2-0.7,0.2-1c0-0.5-0.2-1-0.4-1.5C42.4,23,43,22.1,43,21c0-0.5-0.1-0.9-0.3-1.3
			c0.8-0.4,1.3-1.2,1.3-2.2c0-1.3-1-2.3-2.2-2.5c0.1-0.3,0.2-0.7,0.2-1c0-7.2-5.8-13-13-13H15C7.8,1,2,6.8,2,14c0,0.4,0.1,0.7,0.2,1
			C1,15.2,0,16.2,0,17.5c0,0.9,0.5,1.8,1.3,2.2C1.1,20.1,1,20.5,1,21c0,1.1,0.6,2,1.4,2.5C2.2,24,2,24.5,2,25c0,0.4,0.1,0.7,0.2,1
			C1,26.2,0,27.2,0,28.5c0,0.7,0.3,1.4,0.8,1.8C0.3,30.9,0,31.7,0,32.5c0,1.5,0.9,2.8,2.3,3.3C2.1,36.1,2,36.6,2,37c0,3.3,2.7,6,6,6
			h28c3.3,0,6-2.7,6-6c0-0.4-0.1-0.9-0.3-1.2c1.3-0.5,2.3-1.8,2.3-3.3c0-0.8-0.3-1.6-0.8-2.2C43.7,29.9,44,29.2,44,28.5z M4,25
			c0-0.6,0.4-1,1-1h6v1.5c0,0.2,0,0.3,0,0.5H5C4.4,26,4,25.6,4,25z M4,22c-0.6,0-1-0.4-1-1s0.4-1,1-1h36c0.6,0,1,0.4,1,1s-0.4,1-1,1
			h-1h-4h-4h-9h-1.6c-1.1,0-2.2,0.4-3.1,1.1l-3.5,2.8c-0.3,0.2-0.8,0-0.8-0.4V24c0-1.1-0.9-2-2-2H5H4z M18.5,24.7
			c0.1-0.1,0.2-0.1,0.3-0.2c0.1,0.2,0.2,0.3,0.2,0.5c0,0.6-0.4,1-1,1h-1.1L18.5,24.7z M21,25c0-0.6,0.4-1,1-1h9c0.6,0,1,0.4,1,1
			s-0.4,1-1,1h-9C21.4,26,21,25.6,21,25z M34,25c0-0.6,0.4-1,1-1h4c0.6,0,1,0.4,1,1s-0.4,1-1,1h-4C34.4,26,34,25.6,34,25z M15,3h14
			c6.1,0,11,4.9,11,11c0,0.6-0.4,1-1,1H5c-0.6,0-1-0.4-1-1C4,7.9,8.9,3,15,3z M2.5,17H5h34h2.5c0.3,0,0.5,0.2,0.5,0.5
			S41.8,18,41.5,18H40H4H2.5C2.2,18,2,17.8,2,17.5S2.2,17,2.5,17z M2.5,28H5h8.5H18h4h9h4h4h2.5c0.3,0,0.5,0.2,0.5,0.5
			S41.8,29,41.5,29h-1h-37h-1C2.2,29,2,28.8,2,28.5S2.2,28,2.5,28z M36,41H8c-2.2,0-4-1.8-4-4c0-0.6,0.4-1,1-1h34c0.6,0,1,0.4,1,1
			C40,39.2,38.2,41,36,41z M40.5,34H39H5H3.5C2.7,34,2,33.3,2,32.5S2.7,31,3.5,31h37c0.8,0,1.5,0.7,1.5,1.5S41.3,34,40.5,34z"/><circle cx="19" cy="7" r="1"/><circle cx="13" cy="7" r="1"/><circle cx="10" cy="11" r="1"/><circle cx="16" cy="11" r="1"/><circle cx="31" cy="7" r="1"/><circle cx="25" cy="7" r="1"/><circle cx="22" cy="11" r="1"/><circle cx="28" cy="11" r="1"/><circle cx="34" cy="11" r="1"/></svg>