<svg xmlns="http://www.w3.org/2000/svg" width="32" height="32" viewBox="0 0 8.467 8.467"><path d="m 1.8494994,289.0604 c -0.1463252,10e-4 -0.2637052,0.12136 -0.2619994,0.26768 v 1.32447 c 0,0.35312 0.5296834,0.35312 0.5296834,0 v -1.32447 c 0.00175,-0.14855 -0.119134,-0.26941 -0.267684,-0.26768 z m 1.5859497,0 c -0.145514,0.003 -0.2616445,0.12216 -0.2599325,0.26768 v 1.32447 c 0,0.35312 0.5296834,0.35312 0.5296834,0 v -1.32447 c 0.00177,-0.14937 -0.1203944,-0.27059 -0.2697509,-0.26768 z m 1.5880167,0 c -0.145514,0.003 -0.2616446,0.12216 -0.2599325,0.26768 v 1.32447 c 0.00765,0.34504 0.5215112,0.34504 0.5291667,0 v -1.32447 c 0.00175,-0.14916 -0.1200793,-0.2703 -0.2692342,-0.26768 z m -4.25607069,2.12132 c -0.1353458,0.0136 -0.2383621,0.12753 -0.2382285,0.26355 v 2.11718 c 0,0.98562 0.49052609,1.85486 1.23971769,2.38125 H 0.79478341 c -0.3452423,0.007 -0.3452423,0.52171 0,0.52917 H 6.3515502 c 0.360477,0.008 0.360477,-0.53695 0,-0.52917 h -1.241268 c 0.5546445,-0.38938 0.96485,-0.96681 1.142049,-1.64021 0.11763,0.0336 0.239393,0.0522 0.362769,0.0522 0.727491,0 1.322397,-0.59491 1.3224,-1.3224 -3e-6,-0.72749 -0.594909,-1.3224 -1.3224,-1.3224 -0.0891,0 -0.176925,0.0118 -0.26355,0.0295 v -0.29507 c -5.82e-4,-0.14612 -0.119497,-0.26411 -0.265617,-0.26355 H 0.79478341 c -0.00912,-5.3e-4 -0.018264,-5.3e-4 -0.027388,0 z m 0.29093819,0.52916 h 4.7640499 c -0.0095,0.61871 0,1.22413 0,1.85157 0,1.32378 -1.0595277,2.38125 -2.3833168,2.38125 -1.3237894,0 -2.3807331,-1.05747 -2.3807331,-2.38125 z m 5.5567669,0.52969 c 0.441509,0 0.792715,0.3512 0.792716,0.79271 -1e-6,0.44151 -0.351207,0.79324 -0.792716,0.79324 -0.09434,0 -0.18683,-0.018 -0.274402,-0.0501 0.0052,-0.0709 0.01085,-0.14171 0.01085,-0.21394 v -1.27589 c 0.08441,-0.0296 0.173081,-0.046 0.26355,-0.046 z" color="#000" font-family="sans-serif" font-weight="400" overflow="visible" paint-order="stroke fill markers" transform="translate(0 -288.533)" white-space="normal" style="line-height:normal;font-variant-ligatures:normal;font-variant-position:normal;font-variant-caps:normal;font-variant-numeric:normal;font-variant-alternates:normal;font-feature-settings:normal;text-indent:0;text-align:start;text-decoration-line:none;text-decoration-style:solid;text-decoration-color:#000;text-transform:none;text-orientation:mixed;shape-padding:0;isolation:auto;mix-blend-mode:normal"/></svg>