<svg xmlns="http://www.w3.org/2000/svg" enable-background="new 0 0 64 64" viewBox="0 0 64 64"><path fill="#050505" d="M62.99,13.97l-31.44-2.53c-0.01-1.29-0.39-2.01-0.7-2.58c-0.14-0.27-0.26-0.49-0.35-0.77h32.53
	c0.54,0,0.97-0.43,0.97-0.97s-0.43-0.97-0.97-0.97H16.77c-0.54,0-0.97,0.43-0.97,0.97s0.43,0.97,0.97,0.97h1.8
	c0.13,0.76,0.39,1.26,0.62,1.68c0.13,0.24,0.24,0.45,0.32,0.7l-2.67-0.21c-0.54-0.05-1,0.36-1.04,0.89c-0.04,0.53,0.35,1,0.89,1.04
	l2.86,0.23c-0.08,0.3-0.21,0.55-0.36,0.84c-0.31,0.59-0.7,1.31-0.7,2.66c0,1.34,0.39,2.07,0.7,2.65c0.27,0.51,0.47,0.88,0.47,1.74
	c0,0.04-0.01,0.06-0.01,0.1c-4.53,0.27-18.67,1.51-18.67,6.19c0,0,0,0,0,0.01c0,0,0,0,0,0c0,0.15,0.23,9.92,6.74,17.14
	C3.91,44.87,0,46.75,0,49.7c0,5.29,13.13,8.15,25.48,8.15s25.48-2.86,25.48-8.15c0-2.95-3.9-4.82-7.71-5.95
	c6.49-7.22,6.72-16.99,6.72-17.14c0,0,0,0,0,0c0,0,0,0,0,0c0-4.61-13.69-5.88-18.43-6.18c0-0.04,0-0.07,0-0.11
	c0-1.34-0.39-2.07-0.7-2.65c-0.27-0.51-0.47-0.88-0.47-1.74c0-0.85,0.2-1.22,0.47-1.73c0.13-0.24,0.26-0.51,0.38-0.82l31.6,2.54
	c0.03,0,0.05,0,0.08,0c0.5,0,0.92-0.38,0.97-0.89C63.92,14.48,63.52,14.01,62.99,13.97z M29.14,9.77c0.25,0.46,0.42,0.83,0.46,1.51
	l-3.03-0.24c-0.08-1.05-0.41-1.67-0.68-2.18c-0.14-0.27-0.26-0.49-0.35-0.77h2.98C28.65,8.85,28.91,9.35,29.14,9.77z M20.91,8.86
	c-0.14-0.27-0.26-0.5-0.35-0.77h2.99c0.13,0.76,0.39,1.26,0.62,1.68c0.19,0.36,0.35,0.66,0.42,1.11l-3.05-0.25
	C21.42,9.83,21.14,9.3,20.91,8.86z M40.99,43.42c-0.14,0.08-0.26,0.19-0.35,0.33c-3.32,3.06-8.14,5.38-15.13,5.65
	c-7.04-0.27-11.88-2.61-15.22-5.69c-0.08-0.12-0.18-0.21-0.3-0.28c-4.68-4.51-6.27-10.48-6.8-13.98c4.15,2.38,13.46,3.49,22.28,3.49
	c8.82,0,18.13-1.11,22.27-3.49C47.23,32.95,45.65,38.91,40.99,43.42z M49.02,49.7c0,2.59-8.96,6.21-23.54,6.21S1.94,52.29,1.94,49.7
	c0-1.14,1.94-2.95,7.35-4.38c3.61,3.27,8.79,5.73,16.23,6.02c7.41-0.29,12.57-2.75,16.17-6.01C47.08,46.75,49.02,48.56,49.02,49.7z
	 M29.14,18.57c0.27,0.51,0.47,0.88,0.47,1.74c0,0.86-0.2,1.23-0.47,1.75c-0.31,0.58-0.7,1.31-0.7,2.65c0,1.35,0.39,2.08,0.7,2.67
	c0.2,0.38,0.36,0.68,0.43,1.15c0.07,0.48,0.49,0.82,0.96,0.82c0.05,0,0.1,0,0.15-0.01c0.53-0.08,0.89-0.57,0.81-1.1
	c-0.12-0.8-0.4-1.32-0.64-1.77c-0.28-0.52-0.47-0.89-0.47-1.75c0-0.86,0.2-1.23,0.47-1.74c0.1-0.19,0.21-0.39,0.31-0.62
	c11.76,0.67,16.88,3.12,16.88,4.25c0,1.5-7.96,4.41-22.55,4.41c-14.59,0-22.55-2.91-22.56-4.41c0,0,0,0,0,0
	c0-1.11,4.89-3.47,16.09-4.2c-0.27,0.53-0.52,1.22-0.52,2.31c0,1.35,0.39,2.08,0.7,2.67c0.2,0.38,0.36,0.68,0.43,1.15
	c0.07,0.48,0.49,0.82,0.96,0.82c0.05,0,0.1,0,0.15-0.01c0.53-0.08,0.89-0.57,0.81-1.1c-0.12-0.8-0.4-1.32-0.64-1.77
	c-0.28-0.52-0.48-0.89-0.48-1.75c0-0.85,0.2-1.23,0.47-1.74c0.31-0.59,0.7-1.31,0.7-2.66c0-1.34-0.39-2.07-0.7-2.65
	c-0.27-0.51-0.47-0.88-0.47-1.74c0-0.86,0.2-1.23,0.47-1.74c0.21-0.4,0.46-0.87,0.6-1.59l2.89,0.23c-0.07,0.15-0.14,0.3-0.22,0.45
	c-0.31,0.59-0.7,1.31-0.7,2.65c0,1.34,0.39,2.07,0.7,2.65c0.27,0.51,0.47,0.88,0.47,1.74c0,0.86-0.2,1.23-0.47,1.75
	c-0.31,0.58-0.7,1.31-0.7,2.65c0,1.35,0.39,2.08,0.7,2.67c0.2,0.38,0.36,0.68,0.43,1.15c0.07,0.48,0.49,0.82,0.96,0.82
	c0.05,0,0.1,0,0.15-0.01c0.53-0.08,0.89-0.57,0.81-1.1c-0.12-0.8-0.4-1.32-0.64-1.77c-0.28-0.52-0.47-0.89-0.47-1.75
	c0-0.86,0.2-1.23,0.47-1.74c0.31-0.59,0.7-1.32,0.7-2.66c0-1.34-0.39-2.07-0.7-2.65c-0.27-0.51-0.47-0.88-0.47-1.74
	c0-0.85,0.2-1.22,0.47-1.74c0.17-0.32,0.37-0.71,0.51-1.2l2.78,0.22c-0.01,0.03-0.02,0.05-0.04,0.07c-0.31,0.58-0.7,1.31-0.7,2.64
	C28.44,17.25,28.82,17.98,29.14,18.57z"/></svg>